<svg xmlns="http://www.w3.org/2000/svg" viewBox="0 0 13 13"><defs><style>.cls-1{fill:#fff;}</style></defs><g id="Layer_2" data-name="Layer 2"><g id="Layer_1-2" data-name="Layer 1"><path class="cls-1" d="M10.32,10.86h1.61v1.07H10.32Zm0-2.22h1.61V9.79H10.32ZM9.18,11.85H8.1V10.78H9.18Zm0-2.14H7v3.21h6V7.49H9.18ZM13,3.21V2.68L11.39,1.07H6V0H2.68V1.07H0V4.9H2.14V3.21h8.72V4.9H9.18V6.5H13V4.9H11.39V3.21ZM3.75,11.4l1.07-.62v.62l-1.07.53Zm0-1.69,1.07-.53v.53l-1.07.54Zm0-1.6,1.07-.54v.54l-1.07.53Zm0-1.61L4.82,6V6.5L3.75,7Zm0-1.6,1.07-.54V4.9l-1.07.53ZM2.68,13H6V3.82H2.68Z"/></g></g></svg>