<svg xmlns="http://www.w3.org/2000/svg" viewBox="0 0 12 12"><defs><style>.cls-1{fill:#fff;}</style></defs><g id="Layer_2" data-name="Layer 2"><g id="Layer_1-2" data-name="Layer 1"><path class="cls-1" d="M5,4.1a.78.78,0,0,1,0-1L8,.22A.74.74,0,0,1,8.47,0,.77.77,0,0,1,9,.22ZM.07,11.48A.53.53,0,0,0,0,11.7a.27.27,0,0,0,.3.3.53.53,0,0,0,.22-.07L1,11.48.6,11Zm4.2-5.59L2.55,7.53a7.58,7.58,0,0,0-1.8,3l.75.75A7.09,7.09,0,0,0,4.57,9.54L6.22,7.9ZM12,1.94a1.52,1.52,0,0,1-.45,1.12L7.13,7.38,4.88,5.07,9.3.82A1.58,1.58,0,0,1,12,1.94"/></g></g></svg>