<?xml version="1.0" encoding="utf-8"?>
<!-- Generator: Adobe Illustrator 24.1.2, SVG Export Plug-In . SVG Version: 6.00 Build 0)  -->
<svg version="1.1" id="Layer_1" xmlns="http://www.w3.org/2000/svg" xmlns:xlink="http://www.w3.org/1999/xlink" x="0px" y="0px"
	 viewBox="0 0 145.8 20.2" style="enable-background:new 0 0 145.8 20.2;" xml:space="preserve">
<style type="text/css">
	.st0{fill:#DD9C00;}
	.st1{fill:none;stroke:#DD9C00;stroke-width:2.5;stroke-linejoin:round;stroke-miterlimit:10;}
</style>
<polygon class="st0" points="135.7,1.3 138.4,7.1 144.5,8 140.1,12.5 141.1,19 135.7,15.9 130.2,19 131.3,12.5 126.8,8 132.9,7.1 
	"/>
<polygon class="st1" points="135.7,1.3 138.4,7.1 144.5,8 140.1,12.5 141.1,19 135.7,15.9 130.2,19 131.3,12.5 126.8,8 132.9,7.1 
	"/>
<polygon class="st0" points="110.6,1.3 113.3,7.1 119.4,8 115,12.5 116,19 110.6,15.9 105.1,19 106.1,12.5 101.7,8 107.8,7.1 "/>
<polygon class="st1" points="110.6,1.3 113.3,7.1 119.4,8 115,12.5 116,19 110.6,15.9 105.1,19 106.1,12.5 101.7,8 107.8,7.1 "/>
<polygon class="st0" points="85.4,1.3 88.2,7.1 94.3,8 89.8,12.5 90.9,19 85.4,15.9 80,19 81,12.5 76.6,8 82.7,7.1 "/>
<polygon class="st1" points="85.4,1.3 88.2,7.1 94.3,8 89.8,12.5 90.9,19 85.4,15.9 80,19 81,12.5 76.6,8 82.7,7.1 "/>
<polygon class="st0" points="60.3,1.3 63,7.1 69.1,8 64.7,12.5 65.8,19 60.3,15.9 54.9,19 55.9,12.5 51.5,8 57.6,7.1 "/>
<polygon class="st1" points="60.3,1.3 63,7.1 69.1,8 64.7,12.5 65.8,19 60.3,15.9 54.9,19 55.9,12.5 51.5,8 57.6,7.1 "/>
<polygon class="st0" points="35.2,1.3 37.9,7.1 44,8 39.6,12.5 40.6,19 35.2,15.9 29.7,19 30.8,12.5 26.4,8 32.5,7.1 "/>
<polygon class="st1" points="35.2,1.3 37.9,7.1 44,8 39.6,12.5 40.6,19 35.2,15.9 29.7,19 30.8,12.5 26.4,8 32.5,7.1 "/>
<polygon class="st0" points="10.1,1.3 12.8,7.1 18.9,8 14.5,12.5 15.5,19 10.1,15.9 4.6,19 5.7,12.5 1.3,8 7.3,7.1 "/>
<polygon class="st1" points="10.1,1.3 12.8,7.1 18.9,8 14.5,12.5 15.5,19 10.1,15.9 4.6,19 5.7,12.5 1.3,8 7.3,7.1 "/>
</svg>
